<?xml version="1.0" encoding="utf-8"?>
<!-- Generator: Adobe Illustrator 22.1.0, SVG Export Plug-In . SVG Version: 6.00 Build 0)  -->
<svg version="1.1" id="Layer_1" xmlns="http://www.w3.org/2000/svg" xmlns:xlink="http://www.w3.org/1999/xlink" x="0px" y="0px"
	 viewBox="0 0 600 600" style="enable-background:new 0 0 600 600;" xml:space="preserve">
<style type="text/css">
	.st0{fill:#EBAE34;}
</style>
<path class="st0" d="M451.7,431c-5.3-18.7-38.5-100.6-96.5-112.4l-8.4,17.3c24.2,8.6,42.8,55.2,64.2,108.7l54.6,127.7
	C465.6,572.3,432.7,498.7,451.7,431z"/>
<path class="st0" d="M38.3,27.7c0,0-15.2,50.6-15.2,79.5c0,28.8,5.1,55.3,15.1,79.5s23.6,44.8,40.7,62.1
	c56.1,56.6,143.8,63.9,218.5,49.1c10.3-2,20.5-4.6,30.4-7.8c4.7-1.6,8.8-3.1,12.1-4.6c0,0-3.6,4.5-6.5,8.4
	c-6.1,7.8-14.3,19.1-19.9,27c-68.2,101.5-141.8,124-160.1,92.8c-22.4-37.4,42-75.6,141.3-85.3c3.7-5.1,8.6-12.2,13.6-18.9
	c-33.1,2.1-66.4,5.2-98.7,13.1c-27.7,6.8-54.1,19.5-75.3,38.9c-20.2,18.4-34.1,49.5-22.8,76.1c8.5,20.1,27.2,34.2,48,38.2
	c2.8,0.6,5.4,0.8,8.2,1c108.1,6.9,164.2-136.6,175.9-156.9c2.1-4.2,15.1-28.4,20.5-40c31.5-11.9,138.3-57.1,159.6-68.7
	c22.1-12.1,40.7-31.6,49.5-55.9c12.2-33.7-5.8-64.1-36.7-76c-34.5-12.5-79.3-5.1-110.9,28.1c-3.1,3.5-6,7.1-8.9,11.1
	c0,0-8.8,11.9-11.2,15.9c-3.1,5.1-10.8,20.8-10.8,20.8c-16.4,32.6-26.5,66.3-32.2,82.2c7-2.5,16.1-6,23.9-9.7
	c5.6-11.9,10.7-25.6,13.1-31c3.5-7.6,6.9-15.3,10.8-22.7l12.8-20.9l1.2-1.5c12-16.4,27.8-31.1,47.3-37.9c8.2-2.9,18-4.5,26.9-3.3
	c11.3,1.5,21.1,7.4,24.2,20.9c2,8.6-0.8,17.8-5.8,25.1c-5,7.4-11.9,13-19,18.3c-34.2,25.6-70.2,45.2-108.7,62.9
	c-12.9,6.5-30,12.3-35.5,14.3c-10.5,4-41.8,13.5-58.3,16.6c-22.7,5.3-47.3,6.1-70.6,3.3c-41.2-4.7-72.6-21.8-103.6-51.3
	C38.6,142.3,38.3,27.7,38.3,27.7z"/>
</svg>
