<svg xmlns="http://www.w3.org/2000/svg" viewBox="0 0 224.76 256"><defs><style>.cls-1{fill:#2b2f33;}.cls-2{fill:#ffcf34;}</style></defs><title>Asset 8</title><g id="Layer_2" data-name="Layer 2"><g id="Layer_1-2" data-name="Layer 1"><path class="cls-1" d="M77.5,24.85a2.8,2.8,0,0,1-.82-1.43,3.33,3.33,0,0,1-.23-1.73.71.71,0,0,1,.45-.75q20.85-12,21.3-12h.15c.5,0,.75,1,.75,2.85a44.73,44.73,0,0,0-2.7,9.31l-8,40.8a30.35,30.35,0,0,0-.6,6.6c.1.6,1.08,1.12,2.93,1.57a19.69,19.69,0,0,0,3.82.68q.45,0,0,2.7a10.2,10.2,0,0,1-.45,1.5q-8.4-.6-13.5-.6-4.5,0-12.9.6a4.19,4.19,0,0,1,0-2.33c.2-1.25.45-1.87.75-1.87a23.82,23.82,0,0,0,4.43-.68c2-.45,3.22-1,3.52-1.57A37,37,0,0,0,78,63L84.7,28.3q1.35-6.45,0-6.45T77.5,24.85Z"/><path class="cls-1" d="M120.59,78.83q-4.87-9.67-2.32-23.17a47.41,47.41,0,0,1,11.25-23.25q8.7-9.75,18.3-9.75t14.48,9.75q4.86,9.75,2.32,23.25a47.34,47.34,0,0,1-11.25,23.1q-8.7,9.75-18.3,9.75T120.59,78.83Zm8.78-23.32q-2.25,11.55-.3,19.95t7.05,8.4q5.1,0,10.2-8.48a61.31,61.31,0,0,0,7.35-20.32q2.25-11.55.37-19.65t-7-8.11q-5.1,0-10.27,8.26A57.58,57.58,0,0,0,129.37,55.51Z"/><path class="cls-2" d="M223.79,136.71c-5.8.35-11.24.53-17,.53-6.67,0-13.35-.18-18.27-.53a3.08,3.08,0,0,0-.36,4.4l3.17.34c6.15.71,7.91,2.11,7.91,3.34a18.66,18.66,0,0,1-1.59,6.86c-3,7.55-11.24,27.4-16.34,39.35-4,9.31-11.42,27.4-16.86,39-8.79-20-16.87-40.23-24.95-60.61-2.39-5.87-12.52-32.75-31.41-36.59l-2.72,5.64c7.86,2.83,13.91,18,20.9,35.37l23.42,58.3a203,203,0,0,1,8.08,23.37,7.09,7.09,0,0,0,2.64.52,3.53,3.53,0,0,0,1.93-.52c3-9.31,11.24-29.69,18.27-45.85L190.06,188c7.91-17.91,14.76-32.14,19.68-40.4,2.28-3.69,4.92-5.8,9.13-6.16l5.27-.34C225,140.23,225,137.42,223.79,136.71Z"/><path class="cls-2" d="M130.18,79l.35-.49c3.91-5.33,9-10.12,15.36-12.33a20,20,0,0,1,8.75-1.07c3.67.49,6.86,2.42,7.88,6.79A10.59,10.59,0,0,1,160.64,80a25.93,25.93,0,0,1-6.18,6,190.68,190.68,0,0,1-35.38,20.49,103.7,103.7,0,0,1-11.57,4.64,156.64,156.64,0,0,1-19,5.4,68.4,68.4,0,0,1-23,1.09c-13.38-1.55-25.23-5.63-33.72-16.68A53.6,53.6,0,0,1,23,83.19,75.21,75.21,0,0,1,20,62a93.27,93.27,0,0,1,2.32-21.15,52.62,52.62,0,0,1,7.42-17.63,37.74,37.74,0,0,1,13.07-12q8-4.46,19.48-4.45a42.54,42.54,0,0,1,16,2.87A39.82,39.82,0,0,1,91,17.62a52,52,0,0,1,9.45,12.25,62.14,62.14,0,0,1,6.41,14.28h2.59c-.37-2.6-.73-4.54-1.11-8.07s-.74-7.11-1.11-10.77-.65-7.19-.83-10.66-.28-6.49-.28-9.09A71.68,71.68,0,0,1,96,4.45Q90.89,3.52,85.44,2.6T74,.83A93.12,93.12,0,0,0,61.22,0,59.69,59.69,0,0,0,37.66,4.73,60.5,60.5,0,0,0,18.18,17.89,63.1,63.1,0,0,0,4.92,38.12,66.49,66.49,0,0,0,0,64,66.49,66.49,0,0,0,4.92,89.88a62.79,62.79,0,0,0,13.26,20.21c18.26,18.45,46.8,20.78,71.11,16a82.27,82.27,0,0,0,9.91-2.53c1.54-.51,2.87-1,3.94-1.48,0,0-1.15,1.47-2.11,2.72-2,2.54-4.65,6.24-6.47,8.78-22.21,33-46.18,40.35-52.09,30.19-7.29-12.13,13.63-24.61,46-27.76,1.19-1.67,2.8-4,4.41-6.16-10.76.69-21.61,1.69-32.1,4.29a56.28,56.28,0,0,0-24.5,12.64c-6.58,6-11.1,16.08-7.42,24.77a21.33,21.33,0,0,0,15.6,12.4,18.68,18.68,0,0,0,2.68.33c35.17,2.25,53.42-44.48,57.25-51.07.67-1.34,4.9-9.24,6.66-13,10.23-3.87,45-18.59,51.93-22.35a34.55,34.55,0,0,0,16.1-18.19c4-11-1.86-20.88-11.94-24.72-11.22-4-25.82-1.66-36.09,9.17-1,1.13-2,2.33-2.88,3.58a29.73,29.73,0,0,0,.47,5.74A21.94,21.94,0,0,0,130.18,79Z"/><path class="cls-2" d="M121,79.58c-5.31,10.62-8.62,21.58-10.48,26.73a83.22,83.22,0,0,0,7.75-3.15c1.85-3.87,3.49-8.32,4.28-10.08,1.11-2.49,2.26-5,3.53-7.39a17.53,17.53,0,0,1-2.71-2.54A29.85,29.85,0,0,1,121,79.58Z"/><path class="cls-1" d="M124.56,114.66l7.8-3.24Zm7.8-3.24h24.33c1.1,0,2.3,0,3.6-.08s2.37-.09,3.23-.15l1.42-.07q.75,0,.45,1-.3,1.35-3.9,6.6L119.34,178a1.67,1.67,0,0,1-.75.15,2.65,2.65,0,0,1-2-.9,2,2,0,0,1-.52-2,4.75,4.75,0,0,1,.45-1l39-53.4H131.94a5,5,0,0,0-3.3,1.27,11.31,11.31,0,0,0-2.25,2.48,21.51,21.51,0,0,0-1.58,3.22,16.19,16.19,0,0,1-1,2.18q-2.55.3-3.3-.6,3-10.71,4-14.76"/><path class="cls-1" d="M77.5,186.58a2.8,2.8,0,0,1-.82-1.43,3.3,3.3,0,0,1-.23-1.72.69.69,0,0,1,.45-.75q20.85-12,21.3-12h.15q.75,0,.75,2.85a44.43,44.43,0,0,0-2.7,9.3l-8,40.8a30.35,30.35,0,0,0-.6,6.6c.1.6,1.08,1.13,2.93,1.58a19.43,19.43,0,0,0,3.82.67q.45,0,0,2.7a9.79,9.79,0,0,1-.45,1.5q-8.4-.6-13.5-.6-4.5,0-12.9.6a4.15,4.15,0,0,1,0-2.32c.2-1.25.45-1.88.75-1.88a23.57,23.57,0,0,0,4.43-.67c2-.45,3.22-1,3.52-1.58a37,37,0,0,0,1.5-5.55L84.7,190q1.35-6.45,0-6.45T77.5,186.58Z"/><path class="cls-1" d="M145.38,237.87q-1.95,10.5-10.65,10.5a5.91,5.91,0,0,1-5.55-3.38q-1.8-3.37-.75-8.92,2.1-10,8.55-13.65l.15-.15h.15a1.15,1.15,0,0,1,.45.15Q147,229,145.38,237.87Zm2.33-47.77q5.72.94,3.52,12.07a21.72,21.72,0,0,1-6.9,12.15,1,1,0,0,1-.75.29.42.42,0,0,1-.3-.14q-8-4.5-6.3-13.2l.09-.46-3.39-8.54a20.44,20.44,0,0,0-6.15,10.95q-1.95,10.65,6.3,16.2.45.3-.15.6-13.05,6.3-15,16.5-1.35,7.2,3.15,11.47t12,4.28a23,23,0,0,0,14-4.73,18.89,18.89,0,0,0,7.73-12.07q2.1-11-8-18.3-.45-.45.15-.6,10.65-5.55,12.6-15.15,1.35-7-2.4-11.18t-10.5-4.13c-.44,0-.89,0-1.33.06"/><path class="cls-1" d="M72.17,128.09a40.85,40.85,0,0,0,.77,12.15q1.95,8.4,7,8.4t10.2-8.48a61.23,61.23,0,0,0,7.35-20.32q2.25-11.55.38-19.65t-7-8.1q-5.1,0-10.27,8.25a56.22,56.22,0,0,0-7,17.75s-2.41,0-5.22-.2c-3-.24-5.64-.64-5.64-.64A46.86,46.86,0,0,1,73.39,97.19q8.7-9.75,18.3-9.75t14.48,9.75q4.86,9.75,2.32,23.25a47.34,47.34,0,0,1-11.25,23.1q-8.7,9.75-18.3,9.75t-14.47-9.68A31.93,31.93,0,0,1,61.28,128s3.47.21,5.43.22,5,0,5.46-.14"/></g></g></svg>