<svg xmlns="http://www.w3.org/2000/svg" viewBox="0 0 599.1 682.36"><defs><style>.cls-1{opacity:0.8;}.cls-2{fill:#ffc01d;}.cls-3{fill:#f2f2f2;}</style></defs><title>cv-logo-white</title><g id="Layer_2" data-name="Layer 2"><g id="Isolation_Mode" data-name="Isolation Mode"><g class="cls-1"><path class="cls-2" d="M596.5,364.39c-15.45.95-30,1.42-45.41,1.42-17.8,0-35.59-.47-48.7-1.42-3.29,1.9-4.24,8.91-.95,11.73l8.44.92c16.4,1.89,21.08,5.62,21.08,8.91s-.48,8.43-4.24,18.26c-8,20.14-30,73-43.55,104.9-10.74,24.81-30.43,73-44.94,103.94-23.42-53.38-45-107.23-66.49-161.56-6.37-15.64-33.4-87.28-83.72-97.51l-7.27,15c20.95,7.52,37.08,47.89,55.72,94.27l62.41,155.39c8,19.66,16.41,42.63,21.56,62.29a18.47,18.47,0,0,0,7,1.39,9.34,9.34,0,0,0,5.16-1.39c8-24.81,30-79.14,48.7-122.21l25.28-57.62c21.08-47.75,39.35-85.68,52.46-107.7,6.07-9.83,13.12-15.46,24.34-16.4l14.06-.92C599.79,373.78,599.79,366.29,596.5,364.39Z"/><path class="cls-2" d="M347,210.44l.95-1.31c10.41-14.19,24.06-27,40.95-32.86,7.14-2.48,15.62-3.85,23.3-2.85,9.8,1.29,18.29,6.45,21,18.1,1.74,7.47-.69,15.44-5,21.78s-10.34,11.29-16.48,15.88c-29.66,22.21-60.89,39.25-94.31,54.62-11.24,5.62-26,10.7-30.83,12.37-9.08,3.5-36.33,11.66-50.64,14.39-19.74,4.56-41,5.25-61.23,2.91-35.67-4.14-67.26-15-89.88-44.47a142.64,142.64,0,0,1-23.51-47.25,199.94,199.94,0,0,1-7.9-56.61,249.34,249.34,0,0,1,6.19-56.37q6.16-26.68,19.77-47a100.48,100.48,0,0,1,34.85-32.13q21.27-11.85,51.93-11.87,23.76,0,42.78,7.67A106.79,106.79,0,0,1,242.56,47a139.55,139.55,0,0,1,25.2,32.66c7.1,12.52,12.79,23.24,17.08,38.07h6.9c-1-6.93-2-12.11-3-21.52s-2-19-3-28.69-1.72-19.18-2.23-28.42-.74-17.29-.74-24.22a190.65,190.65,0,0,1-26.94-3q-13.64-2.49-28.18-4.94T197.29,2.22A245.63,245.63,0,0,0,163.19,0a158.82,158.82,0,0,0-62.8,12.61A161.11,161.11,0,0,0,48.46,47.69Q26.22,70.22,13.12,101.61T0,170.59q0,37.57,13.12,69t35.34,53.88C97.13,342.61,173.2,348.82,238,336.07a220.43,220.43,0,0,0,26.41-6.76c4.1-1.35,7.64-2.69,10.51-3.95,0,0-3.07,3.94-5.62,7.26-5.25,6.77-12.41,16.64-17.26,23.4C192.84,444,129,463.57,113.19,436.51c-19.41-32.35,36.35-65.6,122.62-74,3.18-4.44,7.46-10.57,11.77-16.39-28.69,1.84-57.62,4.49-85.58,11.42-24,5.94-46.95,16.94-65.31,33.69-17.52,16-29.58,42.86-19.76,66,7.37,17.4,23.61,29.68,41.59,33.07a48.7,48.7,0,0,0,7.13.86c93.76,6,142.39-118.54,152.6-136.11,1.78-3.58,13.07-24.63,17.76-34.74,27.26-10.3,120-49.54,138.41-59.59,19.17-10.46,35.3-27.39,42.93-48.48,10.56-29.21-5-55.63-31.83-65.87-29.92-10.77-68.83-4.44-96.22,24.43-2.66,3-5.22,6.22-7.68,9.55,0,0-.36,3.55,1.27,15.29C345,206.67,347,210.44,347,210.44Z"/><path class="cls-2" d="M322.53,212.11c-14.16,28.32-23,57.52-27.94,71.27,6.06-2.17,14-5.19,20.66-8.41,4.92-10.31,9.31-22.17,11.4-26.88,3-6.64,6-13.25,9.41-19.69a46.91,46.91,0,0,1-7.21-6.78A77.59,77.59,0,0,1,322.53,212.11Z"/></g><path class="cls-3" d="M206.58,66.22c-.8-.53-1.54-1.8-2.2-3.79a8.75,8.75,0,0,1-.6-4.6,1.85,1.85,0,0,1,1.2-2q55.58-32,56.78-32h.4c1.33,0,2,2.54,2,7.6q-4,8.81-7.2,24.79L235.77,165q-2,11.61-1.6,17.59.39,2.4,7.8,4.2a52.1,52.1,0,0,0,10.19,1.8q1.2,0,0,7.2a27.84,27.84,0,0,1-1.2,4q-22.4-1.61-36-1.6-12,0-34.39,1.6c-.53-.8-.53-2.86,0-6.2s1.2-5,2-5a63.13,63.13,0,0,0,11.8-1.8q8.19-1.8,9.39-4.2t4-14.79l18-92.36q3.6-17.19,0-17.19Q222.58,58.23,206.58,66.22Z"/><path class="cls-3" d="M321.44,210.12q-13-25.78-6.2-61.77t30-62q23.19-26,48.78-26t38.58,26q13,26,6.2,62-6.8,35.6-30,61.57t-48.78,26Q334.43,235.91,321.44,210.12ZM344.83,148q-6,30.8-.8,53.18t18.79,22.39q13.59,0,27.19-22.59t19.59-54.18q6-30.78,1-52.38T392,72.78q-13.59,0-27.39,22T344.83,148Z"/><path class="cls-3" d="M332,305.62,352.79,297ZM352.79,297h64.86c2.93,0,6.13-.06,9.6-.2s6.33-.26,8.6-.4,3.52-.2,3.79-.2c1.33,0,1.73.94,1.2,2.8q-.79,3.6-10.39,17.6L318.09,474.51a4.49,4.49,0,0,1-2,.4,7,7,0,0,1-5.4-2.4,5.18,5.18,0,0,1-1.4-5.2,12.8,12.8,0,0,1,1.2-2.8l104-142.34H351.68a13.28,13.28,0,0,0-8.79,3.4,29.51,29.51,0,0,0-6,6.6,56.28,56.28,0,0,0-4.2,8.6,42.66,42.66,0,0,1-2.6,5.79q-6.81.81-8.8-1.6,7.9-28.54,10.72-39.34"/><path class="cls-3" d="M206.58,497.32c-.8-.53-1.54-1.8-2.2-3.8a8.75,8.75,0,0,1-.6-4.6,1.84,1.84,0,0,1,1.2-2q55.58-32,56.78-32h.4c1.33,0,2,2.54,2,7.6q-4,8.79-7.2,24.79L235.77,596.08q-2,11.59-1.6,17.59.39,2.4,7.8,4.2a52.1,52.1,0,0,0,10.19,1.8q1.2,0,0,7.2a27.54,27.54,0,0,1-1.2,4q-22.4-1.59-36-1.59-12,0-34.39,1.59-.79-1.2,0-6.19t2-5a63.13,63.13,0,0,0,11.8-1.8q8.19-1.8,9.39-4.2t4-14.79l18-92.36q3.6-17.19,0-17.2Q222.58,489.32,206.58,497.32Z"/><path class="cls-3" d="M387.5,634q-5.19,28-28.38,28-10,0-14.8-9t-2-23.79q5.61-26.79,22.79-36.39l.4-.4h.41a3.17,3.17,0,0,1,1.19.4Q391.91,610.45,387.5,634Zm6.21-127.32q15.24,2.52,9.39,32.16-3.6,18.79-18.39,32.38a2.7,2.7,0,0,1-2,.8,1.12,1.12,0,0,1-.8-.4q-21.21-12-16.8-35.18c.09-.41.17-.81.25-1.21l-9-22.77a54.44,54.44,0,0,0-16.4,29.17q-5.19,28.4,16.8,43.19c.8.53.66,1.06-.4,1.6q-34.79,16.78-40,44-3.61,19.19,8.39,30.58t32,11.4a61.42,61.42,0,0,0,37.38-12.59q17-12.6,20.59-32.19,5.6-29.19-21.19-48.78c-.8-.8-.67-1.33.4-1.6q28.39-14.79,33.59-40.38,3.6-18.79-6.4-29.79t-28-11c-1.18,0-2.36.05-3.54.14"/><path class="cls-3" d="M192.37,341.43a108.19,108.19,0,0,0,2,32.37q5.19,22.4,18.79,22.39T240.4,373.6Q254,351,260,319.43q6-30.8,1-52.38T242.4,245.46q-13.59,0-27.39,22c-8.3,13.24-14.5,29.08-18.56,47.31,0,0-6.42,0-13.93-.53-7.93-.65-15-1.71-15-1.71a124.92,124.92,0,0,1,28.12-53.47q23.19-26,48.78-26t38.58,26q13,26,6.2,62-6.8,35.58-30,61.57t-48.78,26q-25.59,0-38.58-25.79-9.2-18.24-8.48-41.6s9.23.56,14.46.6c4.95,0,13.23-.05,14.56-.37"/></g></g></svg>