<?xml version="1.0" encoding="utf-8"?>
<!-- Generator: Adobe Illustrator 22.1.0, SVG Export Plug-In . SVG Version: 6.00 Build 0)  -->
<svg version="1.1" id="Layer_1" xmlns="http://www.w3.org/2000/svg" xmlns:xlink="http://www.w3.org/1999/xlink" x="0px" y="0px"
	 viewBox="0 0 599.1 682.4" style="enable-background:new 0 0 599.1 682.4;" xml:space="preserve">
<style type="text/css">
	.st0{opacity:0.8;}
	.st1{fill:#FFFFFF;}
</style>
<title>cv-logo-white</title>
<g id="Layer_2_1_">
	<g id="Isolation_Mode">
		<g class="st0">
			<path class="st1" d="M596.5,364.4c-15.5,1-30,1.4-45.4,1.4c-17.8,0-35.6-0.5-48.7-1.4c-3.3,1.9-4.2,8.9-1,11.7l8.4,0.9
				c16.4,1.9,21.1,5.6,21.1,8.9s-0.5,8.4-4.2,18.3c-8,20.1-30,73-43.5,104.9c-10.7,24.8-30.4,73-44.9,103.9
				c-23.4-53.4-45-107.2-66.5-161.6c-6.4-15.6-33.4-87.3-83.7-97.5l-7.3,15c21,7.5,37.1,47.9,55.7,94.3l62.4,155.4
				c8,19.7,16.4,42.6,21.6,62.3c2.2,0.9,4.6,1.4,7,1.4c1.8,0,3.6-0.4,5.2-1.4c8-24.8,30-79.1,48.7-122.2l25.3-57.6
				c21.1-47.8,39.3-85.7,52.5-107.7c6.1-9.8,13.1-15.5,24.3-16.4l14.1-0.9C599.8,373.8,599.8,366.3,596.5,364.4z"/>
			<path class="st1" d="M347,210.4l1-1.3c10.4-14.2,24.1-27,41-32.9c7.1-2.5,15.6-3.9,23.3-2.9c9.8,1.3,18.3,6.4,21,18.1
				c1.7,7.5-0.7,15.4-5,21.8s-10.3,11.3-16.5,15.9c-29.7,22.2-60.9,39.2-94.3,54.6c-11.2,5.6-26,10.7-30.8,12.4
				c-9.1,3.5-36.3,11.7-50.6,14.4c-19.7,4.6-41,5.3-61.2,2.9c-35.7-4.1-67.3-15-89.9-44.5c-10.7-14.2-18.7-30.2-23.5-47.3
				c-5.3-18.4-8-37.5-7.9-56.6c-0.1-19,2-37.9,6.2-56.4c4.1-17.8,10.7-33.5,19.8-47c8.9-13.3,20.8-24.4,34.8-32.1
				c14.2-7.9,31.5-11.9,51.9-11.9c15.8,0,30.1,2.6,42.8,7.7c12.5,5,23.9,12.3,33.6,21.6c10,9.6,18.5,20.6,25.2,32.7
				c7.1,12.5,12.8,23.2,17.1,38.1h6.9c-1-6.9-2-12.1-3-21.5s-2-19-3-28.7s-1.7-19.2-2.2-28.4S283,21.8,283,14.9
				c-9-0.4-18-1.4-26.9-3c-9.1-1.7-18.5-3.3-28.2-4.9s-19.8-3.2-30.4-4.7C186,0.7,174.6-0.1,163.2,0c-21.6-0.1-42.9,4.2-62.8,12.6
				C81,20.8,63.3,32.7,48.5,47.7s-26.6,33-35.3,53.9S0,145.5,0,170.6c0,25,4.4,48,13.1,69s20.5,38.9,35.3,53.9
				c48.7,49.1,124.7,55.4,189.5,42.6c8.9-1.7,17.8-4,26.4-6.8c4.1-1.4,7.6-2.7,10.5-4c0,0-3.1,3.9-5.6,7.3
				c-5.3,6.8-12.4,16.6-17.3,23.4c-59.2,88-123,107.6-138.9,80.5c-19.4-32.4,36.4-65.6,122.6-74c3.2-4.4,7.5-10.6,11.8-16.4
				c-28.7,1.8-57.6,4.5-85.6,11.4c-24,5.9-46.9,16.9-65.3,33.7c-17.5,16-29.6,42.9-19.8,66c7.4,17.4,23.6,29.7,41.6,33.1
				c2.4,0.5,4.7,0.7,7.1,0.9c93.8,6,142.4-118.5,152.6-136.1c1.8-3.6,13.1-24.6,17.8-34.7c27.3-10.3,120-49.5,138.4-59.6
				c19.2-10.5,35.3-27.4,42.9-48.5c10.6-29.2-5-55.6-31.8-65.9c-29.9-10.8-68.8-4.4-96.2,24.4c-2.7,3-5.2,6.2-7.7,9.6
				c0,0-7.6,10.3-9.7,13.8c-2.7,4.4-9.4,18-9.4,18c-14.2,28.3-23,57.5-27.9,71.3c6.1-2.2,14-5.2,20.7-8.4
				c4.9-10.3,9.3-22.2,11.4-26.9c3-6.6,6-13.3,9.4-19.7L347,210.4z"/>
		</g>
	</g>
</g>
</svg>
