<svg xmlns="http://www.w3.org/2000/svg" viewBox="0 0 369 449.83"><defs><style>.cls-1,.cls-30{fill:none;}.cls-2{fill:#e0e0e0;}.cls-14,.cls-24,.cls-3,.cls-7,.cls-8,.cls-9{font-size:9px;}.cls-14,.cls-21,.cls-22,.cls-24,.cls-3,.cls-5,.cls-7,.cls-8,.cls-9{fill:#646658;}.cls-11,.cls-14,.cls-21,.cls-3{font-family:CrimsonText-Regular, Crimson Text;}.cls-3{letter-spacing:0.05em;}.cls-4,.cls-6{font-size:46.32px;}.cls-17,.cls-4,.cls-6{fill:#e8cc1c;}.cls-17,.cls-22,.cls-4,.cls-5,.cls-6{font-family:CrimsonText-SemiBoldItalic, Crimson Text;}.cls-10,.cls-12,.cls-13,.cls-16,.cls-17,.cls-22,.cls-24,.cls-31,.cls-33,.cls-4,.cls-5,.cls-6,.cls-7,.cls-8{font-weight:700;}.cls-17,.cls-22,.cls-31,.cls-33,.cls-4,.cls-5,.cls-6{font-style:italic;}.cls-4{letter-spacing:0.05em;}.cls-5{font-size:8.57px;letter-spacing:0.05em;}.cls-6{letter-spacing:0.05em;}.cls-16,.cls-7,.cls-9{font-family:CrimsonText-SemiBold, Crimson Text;}.cls-7,.cls-8{letter-spacing:0.03em;}.cls-24,.cls-8{font-family:CrimsonText-Bold, Crimson Text;}.cls-14,.cls-9{letter-spacing:0.05em;}.cls-12{letter-spacing:0.05em;}.cls-13,.cls-15{font-size:7px;}.cls-13{letter-spacing:0.05em;}.cls-15{letter-spacing:0.05em;}.cls-16,.cls-21{font-size:10px;letter-spacing:0.05em;}.cls-17{font-size:34.12px;}.cls-18{letter-spacing:-0.07em;}.cls-19{letter-spacing:0.02em;}.cls-20{letter-spacing:-0.04em;}.cls-22{font-size:8px;letter-spacing:0.05em;}.cls-23{letter-spacing:0.12em;}.cls-25{letter-spacing:0.1em;}.cls-26{letter-spacing:0.12em;}.cls-27{letter-spacing:0.02em;}.cls-28{letter-spacing:0.1em;}.cls-29{letter-spacing:0.14em;}.cls-30{stroke:#e8cc1c;stroke-miterlimit:10;stroke-width:0.5px;}.cls-31,.cls-33{font-size:11px;fill:#656759;font-family:CrimsonText-BoldItalic, Crimson Text;}.cls-31{letter-spacing:0.19em;}.cls-32,.cls-33{letter-spacing:0.05em;}</style></defs><title>invite</title><g id="Layer_2" data-name="Layer 2"><g id="Layer_1-2" data-name="Layer 1"><rect class="cls-1" width="369" height="449.83"/><path class="cls-2" d="M295.8,231.92c-5.16.31-10,.47-15.16.47-5.93,0-11.87-.16-16.25-.47a2.74,2.74,0,0,0-.31,3.91l2.81.3c5.47.64,7,1.88,7,3a16.52,16.52,0,0,1-1.42,6.09c-2.65,6.72-10,24.37-14.53,35-3.58,8.28-10.15,24.37-15,34.68-7.82-17.81-15-35.77-22.19-53.9-2.13-5.22-11.14-29.13-27.93-32.54l-2.43,5c7,2.51,12.37,16,18.59,31.45l20.83,51.85a181.72,181.72,0,0,1,7.19,20.79,6.29,6.29,0,0,0,2.34.46,3.16,3.16,0,0,0,1.72-.46c2.66-8.28,10-26.41,16.25-40.78l8.44-19.23c7-15.93,13.12-28.58,17.5-35.93,2-3.28,4.38-5.16,8.12-5.48l4.69-.3C296.89,235.05,296.89,232.55,295.8,231.92Z"/><path class="cls-2" d="M245.42,159.17a30.46,30.46,0,0,0-32.11,8.15c-10.17,11.56-15.73,30.58-18.25,37.56,2-.72,4.66-1.73,6.89-2.8,1.64-3.44,3.11-7.4,3.81-9a69.15,69.15,0,0,1,7.1-13c3.47-4.74,8-9,13.66-11a17.48,17.48,0,0,1,7.77-1c3.27.43,6.11,2.15,7,6a9.41,9.41,0,0,1-1.67,7.27,22.86,22.86,0,0,1-5.49,5.3A170.1,170.1,0,0,1,202.67,205a92.65,92.65,0,0,1-10.29,4.12,141.08,141.08,0,0,1-16.89,4.8,60.69,60.69,0,0,1-20.43,1c-11.91-1.37-22.45-5-30-14.83a47.61,47.61,0,0,1-7.85-15.77,66.68,66.68,0,0,1-2.63-18.89,83.48,83.48,0,0,1,2.06-18.81,46.86,46.86,0,0,1,6.6-15.67,33.38,33.38,0,0,1,11.63-10.72q7.1-4,17.32-4a37.85,37.85,0,0,1,14.28,2.56A35.74,35.74,0,0,1,177.7,126a46.82,46.82,0,0,1,8.41,10.89,55.33,55.33,0,0,1,5.69,12.71h2.31c-.33-2.31-.66-4-1-7.18s-.66-6.33-1-9.58-.57-6.4-.74-9.48-.25-5.77-.25-8.08a63.37,63.37,0,0,1-9-1q-4.54-.83-9.4-1.65c-3.25-.55-6.63-1.07-10.16-1.57a82.52,82.52,0,0,0-11.38-.74,52.94,52.94,0,0,0-21,4.21,53.72,53.72,0,0,0-17.32,11.71,55.89,55.89,0,0,0-11.8,18,62.82,62.82,0,0,0,0,46,55.89,55.89,0,0,0,11.8,18c16.23,16.4,41.62,18.47,63.24,14.22a75.9,75.9,0,0,0,8.81-2.26c1.37-.45,2.55-.9,3.5-1.32l-1.87,2.43c-1.75,2.25-4.14,5.55-5.76,7.8C161.11,258.47,139.8,265,134.53,256c-6.47-10.8,12.13-21.89,40.92-24.7,1.06-1.48,2.48-3.53,3.92-5.47-9.57.61-19.22,1.5-28.55,3.81A50.21,50.21,0,0,0,129,240.86c-5.85,5.33-9.87,14.3-6.6,22a19,19,0,0,0,13.88,11,17.36,17.36,0,0,0,2.38.28c31.28,2,47.51-39.55,50.92-45.41.59-1.19,4.36-8.22,5.92-11.59,9.1-3.44,40.05-16.53,46.18-19.88A30.79,30.79,0,0,0,256,181.15C259.56,171.4,254.38,162.59,245.42,159.17Z"/><text class="cls-3" transform="translate(129.4 68.05)">HUMBLY INVITE YOU TO<tspan x="-11.85" y="12">CELEBRATE THEIR MARRIAGE</tspan></text><text class="cls-4" transform="translate(216.51 152.57)">07</text><text class="cls-5" transform="translate(223.67 119.42)">OCTOBER </text><text class="cls-6" transform="translate(264.79 227.04)">5</text><text class="cls-5" transform="translate(284.55 225.49)">PM</text><text class="cls-7" transform="translate(41.98 384.35)">A GREAT FEAST WITH DRINKS <tspan x="19.99" y="10.8">AND DANCE TO FOLLOW</tspan></text><text class="cls-8" transform="translate(60.35 416.25)">ADULTS CELEBRATION<tspan x="37.71" y="10.8">ONLY PLEASE </tspan></text><text class="cls-9" transform="translate(195 384.43)"><tspan class="cls-10">RSVP ONLINE BY</tspan><tspan class="cls-11" x="74.47" y="0"> </tspan><tspan class="cls-12" x="76.93" y="0">1</tspan><tspan class="cls-13" x="80.88" y="-1">ST</tspan><tspan class="cls-12" x="89.35" y="0" xml:space="preserve"> SEPT 2018</tspan></text><text class="cls-14" transform="translate(179.61 426.96)">RSVP CODE<tspan x="50.65" y="-1">:</tspan><tspan class="cls-15" x="53.16" y="0"> </tspan><tspan class="cls-16" x="55.07" y="0">0529</tspan></text><text class="cls-17" transform="translate(40.84 310.48)">BE<tspan class="cls-18" x="36.79" y="0">L</tspan><tspan class="cls-19" x="51.92" y="0">V</tspan><tspan x="72.53" y="0">EDERE</tspan><tspan x="85.81" y="28.41">HO</tspan><tspan class="cls-20" x="131.29" y="28.41">T</tspan><tspan x="149.12" y="28.41">EL</tspan></text><text class="cls-21" transform="translate(174.22 47.42)">+</text><text class="cls-22" transform="translate(57.94 321.69) scale(1.04 1)">1E CHASE STREET<tspan x="-0.21" y="8">BALTIMORE, MD</tspan><tspan class="cls-23"><tspan x="39.02" y="16">21202</tspan></tspan></text><text class="cls-24" transform="translate(187.89 406.54)"><tspan class="cls-25">WW</tspan><tspan x="21.03" y="0">W</tspan><tspan class="cls-26" x="30.65" y="0">.</tspan><tspan class="cls-25" x="33.52" y="0">CH</tspan><tspan class="cls-27" x="47.32" y="0">R</tspan><tspan class="cls-28" x="53.73" y="0">ISV</tspan><tspan class="cls-27" x="70.12" y="0">Y</tspan><tspan class="cls-29" x="76.18" y="0">.</tspan><tspan class="cls-25" x="79.23" y="0">COM</tspan></text><line class="cls-30" x1="187.34" y1="377.6" x2="165.82" y2="429.3"/><text class="cls-3" transform="translate(137.14 26.55)">WITH GREAT HONOR</text><text class="cls-31" transform="translate(147.69 47.59)">V<tspan class="cls-32" x="7.97" y="0">Y</tspan></text><text class="cls-33" transform="translate(192.54 47.59)">CHRIS</text></g></g></svg>